<svg xmlns="http://www.w3.org/2000/svg" viewBox="0 0 2048 944" role="img" aria-label="Nimbus Travel">
<path fill="#006b91" fill-rule="evenodd" d="M1801 789L1801 922L1874 922L1875 909L1824 909L1817 907L1817 789ZM1659 789L1659 922L1733 922L1734 909L1678 909L1676 907L1677 860L1728 859L1727 846L1676 845L1676 804L1730 803L1731 789ZM1498 789L1541 921L1561 922L1608 789L1591 789L1553 900L1549 896L1517 790ZM1406 789L1361 922L1378 922L1392 881L1439 881L1453 921L1471 922L1427 790ZM1415 809L1418 810L1435 863L1433 868L1398 868L1396 866ZM1062 789L1062 803L1102 804L1102 922L1119 922L1119 804L1160 803L1160 789ZM1221 790L1220 922L1236 922L1236 866L1238 864L1257 864L1268 868L1277 879L1288 921L1306 922L1294 877L1290 869L1280 860L1281 856L1294 847L1301 834L1302 818L1297 805L1287 795L1271 789L1238 788ZM1238 802L1262 801L1272 804L1280 810L1284 818L1285 830L1281 840L1275 846L1258 852L1238 852L1236 850L1236 804ZM191 576L93 609L81 680L175 680ZM447 462L363 505L263 548L299 633L308 646L332 667L346 674L368 680L413 680ZM1468 376L1433 590L1433 630L1437 647L1444 661L1455 672L1467 679L1491 685L1517 686L1537 684L1556 679L1605 651L1616 680L1693 680L1741 376L1648 376L1615 587L1599 601L1587 607L1564 613L1540 612L1531 605L1528 597L1529 576L1561 377ZM644 377L596 680L690 679L723 469L748 450L763 445L783 443L796 445L804 451L807 456L809 471L776 680L870 679L904 465L917 455L933 448L963 443L978 445L986 451L990 460L990 478L957 680L1051 680L1084 478L1086 437L1082 415L1076 400L1064 386L1050 378L1033 373L989 373L950 383L899 409L891 395L882 386L866 377L843 372L814 372L798 374L774 382L733 407L720 376ZM2030 370L1847 370L1816 378L1803 386L1792 397L1784 409L1776 429L1767 480L1768 509L1773 525L1781 539L1798 554L1822 563L1914 565L1921 571L1920 587L1916 598L1905 605L1762 605L1750 679L1939 680L1955 677L1974 670L1984 664L1994 654L2004 636L2009 620L2018 565L2017 540L2012 523L2004 509L1987 494L1962 486L1870 485L1863 478L1866 456L1870 449L1880 444L2020 444ZM601 364L496 434L458 680L551 680ZM1167 257L1164 260L1098 680L1175 681L1196 652L1231 674L1262 683L1294 684L1326 677L1348 665L1368 644L1381 620L1393 583L1401 542L1406 498L1406 454L1399 419L1389 400L1378 388L1362 378L1345 373L1308 372L1268 379L1239 389L1238 384L1258 258ZM1296 443L1307 452L1310 459L1311 493L1304 543L1294 580L1286 594L1271 605L1244 606L1223 601L1207 590L1228 453L1241 447L1259 443Z"/>
<path fill="#ffd400" fill-rule="evenodd" d="M895 39L887 40L864 51L835 55L825 61L807 79L804 79L746 38L596 2L595 0L588 0L729 94L762 141L762 149L735 184L700 222L650 270L614 301L611 300L617 257L524 257L503 387L459 418L456 418L455 414L480 258L387 257L351 481L342 487L339 486L268 316L253 291L236 275L212 262L189 257L149 257L95 595L91 599L11 628L64 613L126 592L267 536L397 473L491 418L608 335L684 274L738 226L784 180L819 139L844 103L861 69ZM217 440L253 521L255 530L197 555L196 549L213 441Z"/>
</svg>